<svg width="200" height="200" viewBox="0 0 200 200" xmlns="http://www.w3.org/2000/svg">
  <!-- Fundo preto -->
  <rect width="200" height="200" fill="#000000"/>
  
  <!-- Floco de neve central -->
  <g transform="translate(100, 100)">
    <!-- Braços principais do floco de neve -->
    <g stroke="#ffffff" stroke-width="3" fill="none">
      <!-- Braço superior -->
      <line x1="0" y1="-40" x2="0" y2="-20"/>
      <line x1="-8" y1="-30" x2="8" y2="-30"/>
      <line x1="-5" y1="-25" x2="5" y2="-25"/>
      
      <!-- Braço inferior -->
      <line x1="0" y1="20" x2="0" y2="40"/>
      <line x1="-8" y1="30" x2="8" y2="30"/>
      <line x1="-5" y1="25" x2="5" y2="25"/>
      
      <!-- Braço esquerdo -->
      <line x1="-40" y1="0" x2="-20" y2="0"/>
      <line x1="-30" y1="-8" x2="-30" y2="8"/>
      <line x1="-25" y1="-5" x2="-25" y2="5"/>
      
      <!-- Braço direito -->
      <line x1="20" y1="0" x2="40" y2="0"/>
      <line x1="30" y1="-8" x2="30" y2="8"/>
      <line x1="25" y1="-5" x2="25" y2="5"/>
      
      <!-- Braços diagonais -->
      <line x1="-28" y1="-28" x2="-14" y2="-14"/>
      <line x1="-21" y1="-21" x2="-7" y2="-7"/>
      <line x1="-7" y1="-7" x2="-3" y2="-3"/>
      
      <line x1="28" y1="-28" x2="14" y2="-14"/>
      <line x1="21" y1="-21" x2="7" y2="-7"/>
      <line x1="7" y1="-7" x2="3" y2="-3"/>
      
      <line x1="-28" y1="28" x2="-14" y2="14"/>
      <line x1="-21" y1="21" x2="-7" y2="7"/>
      <line x1="-7" y1="7" x2="-3" y2="3"/>
      
      <line x1="28" y1="28" x2="14" y2="14"/>
      <line x1="21" y1="21" x2="7" y2="7"/>
      <line x1="7" y1="7" x2="3" y2="3"/>
    </g>
  </g>
  
  <!-- Órbita branca diagonal -->
  <ellipse cx="100" cy="100" rx="60" ry="20" stroke="#ffffff" stroke-width="2" fill="none" transform="rotate(45 100 100)"/>
  
  <!-- Arco ciano -->
  <path d="M 40 40 Q 100 20 160 40" stroke="#00ffff" stroke-width="8" fill="none"/>
  
  <!-- Chave de boca -->
  <g transform="translate(160, 40)">
    <rect x="-15" y="-8" width="30" height="16" rx="8" fill="#00ffff"/>
    <rect x="-5" y="-12" width="10" height="24" rx="5" fill="#00ffff"/>
    <rect x="5" y="-6" width="20" height="12" rx="6" fill="#00ffff"/>
  </g>
  
  <!-- Ícone secundário no canto inferior direito -->
  <g transform="translate(170, 170)">
    <!-- Chave de boca cruzada -->
    <rect x="-8" y="-4" width="16" height="8" rx="4" fill="#00ffff"/>
    <rect x="-2" y="-6" width="4" height="12" rx="2" fill="#00ffff"/>
    <rect x="2" y="-3" width="8" height="6" rx="3" fill="#00ffff"/>
    
    <!-- Gota de água -->
    <path d="M 8 -2 Q 8 -8 4 -8 Q 0 -8 0 -2 Q 0 4 4 4 Q 8 4 8 -2" fill="#00ffff"/>
  </g>
</svg>
